<?xml version="1.0" standalone="no"?>
<!DOCTYPE svg PUBLIC "-//W3C//DTD SVG 20010904//EN"
 "http://www.w3.org/TR/2001/REC-SVG-20010904/DTD/svg10.dtd">
<svg version="1.0" xmlns="http://www.w3.org/2000/svg"
 width="500.000000pt" height="500.000000pt" viewBox="0 0 500.000000 500.000000"
 preserveAspectRatio="xMidYMid meet">
<metadata>
Created by potrace 1.16, written by Peter Selinger 2001-2019
</metadata>
<g transform="translate(0.000000,500.000000) scale(0.100000,-0.100000)"
fill="#000000" stroke="none">
<path d="M2180 4176 c-397 -58 -772 -257 -1031 -550 -280 -314 -439 -720 -439
-1117 0 -485 192 -934 538 -1260 355 -334 804 -493 1295 -458 423 30 811 214
1107 527 466 491 597 1203 335 1828 -106 252 -279 486 -480 648 -249 202 -464
304 -770 367 -130 27 -417 34 -555 15z m505 -32 c345 -59 636 -204 883 -439
308 -291 492 -682 520 -1105 43 -629 -261 -1213 -805 -1548 -408 -252 -941
-312 -1400 -156 -367 124 -668 359 -883 689 -102 157 -185 362 -232 571 -19
86 -22 130 -22 334 -1 211 1 246 22 338 95 424 332 783 682 1032 223 159 510
268 790 299 110 13 330 5 445 -15z"/>
<path d="M2230 4119 c-276 -29 -543 -135 -785 -313 l-69 -51 118 -5 119 -5
262 -433 c145 -239 267 -438 273 -444 9 -9 117 166 433 704 l104 177 118 1
c130 0 147 -10 81 -49 -23 -14 -43 -38 -57 -68 -22 -47 -22 -56 -25 -595 l-3
-548 307 0 c302 0 307 0 290 19 -10 11 -41 29 -69 42 -66 29 -215 37 -334 19
-46 -7 -86 -10 -90 -7 -6 6 21 183 79 514 l21 121 226 5 c157 3 238 8 265 18
40 14 94 59 113 93 6 10 15 16 22 12 15 -10 -26 -89 -78 -148 -79 -89 -178
-117 -418 -118 l-122 0 -6 -32 c-12 -66 -53 -333 -52 -335 1 -1 26 5 55 12 29
8 97 17 150 21 212 14 381 -54 453 -182 l31 -54 199 0 199 0 0 86 c0 388 -205
831 -520 1120 -353 325 -805 473 -1290 423z"/>
<path d="M1254 3638 c-249 -258 -396 -555 -449 -906 -8 -56 -15 -133 -15 -172
l0 -70 345 0 345 0 0 528 c0 564 -2 594 -50 655 -16 20 -71 57 -85 57 -1 0
-42 -42 -91 -92z"/>
<path d="M2573 3493 c-22 -38 -129 -219 -238 -403 -109 -184 -206 -350 -217
-367 -42 -71 -42 -71 -318 385 -139 229 -259 424 -267 432 -11 12 -13 -62 -13
-456 0 -259 3 -499 6 -533 l7 -61 543 0 544 0 0 535 c0 294 -2 535 -3 535 -2
0 -22 -30 -44 -67z"/>
<path d="M2755 2316 c-8 -19 -15 -40 -15 -45 0 -5 -17 -12 -37 -14 l-38 -4 38
-1 c34 -2 37 -4 37 -31 0 -25 -7 -33 -43 -50 -54 -26 -53 -26 -82 5 l-24 26
-12 -26 c-7 -14 -16 -26 -21 -26 -15 0 -8 21 17 45 30 31 25 31 -24 1 -50 -32
-113 -50 -145 -42 -33 8 -33 22 -1 30 14 4 25 13 25 21 0 17 -35 21 -45 5 -12
-19 -84 -50 -116 -50 -29 0 -31 2 -25 26 7 25 5 26 -20 20 -23 -6 -26 -5 -21
14 3 14 1 20 -6 17 -21 -7 -14 -42 9 -45 12 -2 24 -12 27 -23 6 -24 58 -26
100 -4 25 13 30 12 47 -5 23 -23 59 -25 114 -5 36 12 41 12 52 -3 11 -16 14
-16 32 1 19 18 22 18 47 1 25 -17 28 -16 71 4 44 22 44 22 64 2 25 -25 47 -25
84 -1 28 18 29 18 47 0 24 -24 45 -24 92 1 44 24 47 24 47 6 0 -21 18 -30 34
-17 7 6 27 8 44 5 17 -4 45 -1 63 5 25 8 35 8 52 -4 12 -8 34 -15 50 -15 31 0
127 38 127 50 0 4 -21 -3 -47 -16 -50 -24 -72 -28 -110 -18 -30 8 -29 20 2 28
29 7 34 36 7 36 -11 0 -27 -9 -36 -19 -41 -46 -123 -55 -119 -13 2 14 -3 22
-13 22 -11 0 -15 -6 -11 -20 3 -10 -1 -24 -9 -31 -11 -9 -16 -6 -25 15 l-12
25 -44 -25 c-55 -33 -98 -27 -89 11 l6 25 -47 -30 c-54 -34 -65 -36 -84 -14
-13 16 -21 83 -10 82 3 0 17 1 31 2 20 2 21 3 6 7 -15 4 -17 11 -12 43 8 51
-10 61 -29 16z"/>
<path d="M880 1967 c0 -15 43 -124 70 -177 305 -610 937 -970 1603 -912 519
45 983 333 1259 782 47 77 121 234 133 283 l7 27 -220 0 -220 0 -55 -64 c-94
-106 -265 -244 -475 -382 -101 -67 -132 -80 -132 -55 0 4 33 30 72 57 175 118
385 322 437 422 l12 22 -1246 0 c-685 0 -1245 -2 -1245 -3z"/>
</g>
</svg>
